<?xml version="1.0" encoding="UTF-8" standalone="no"?><!DOCTYPE svg PUBLIC "-//W3C//DTD SVG 1.1//EN" "http://www.w3.org/Graphics/SVG/1.1/DTD/svg11.dtd"><svg width="100%" height="100%" viewBox="0 0 1203 1813" version="1.1" xmlns="http://www.w3.org/2000/svg" xmlns:xlink="http://www.w3.org/1999/xlink" xml:space="preserve" xmlns:serif="http://www.serif.com/" style="fill-rule:evenodd;clip-rule:evenodd;stroke-linecap:round;stroke-linejoin:round;stroke-miterlimit:1.5;"><rect x="-1" y="1" width="1200" height="1812" style="stroke:#000;stroke-width:1px;"/><g><path d="M852,667.375l-23,2.5l-2,-0.125l-37,-6.25l-8,-2l-3.5,-0.5l-1,-1l-1,1l-3.25,-1.25l-0.5,-1.5l-3.25,-1.25l-1,-1l-1,1l-6,-1l-1.5,1.5l0.25,1.25l2.25,0.25l8,8l1.5,0.5l5.5,3.5l2.5,1.375l5,2.125l6.5,3.5l12,9l3,2l1,-1l1.5,1.5l-0.625,2.5l-0.75,2l-0.875,2.875l-6.25,0.125l-2,-2l-2,0l-1.5,-1.5l-1,-3l-1.5,-1.5l-4.25,-1.25l-1.25,-3.25l-4.5,-4.5l-1.5,-0.5l-2,-0.875l-4,-1.25l-13,-5.875l-1.5,-0.5l-2,-2l-2,0l-1.5,-1.5l0,-1l-3,-3l1,-1l-1,-1l1,-1l0,-1l-1,-1l2.5,-2.5l1.5,-0.5l5,-3l1.75,-0.75l0.25,-1.25l2.5,-2.5l6,-1l3,-3l2.5,-0.625l5,-2l6,-3.875l1.5,-0.5l4.5,4.5l0,2l-3.5,3.5l-3.25,-0.25l-0.25,-1.25l-1.5,-1.5l-1.5,0.375l-5,2l-2.5,0.625l-2,2l-1,0l-2.5,2.5l0.5,0.5l2.5,0.625l11,4.875l19,5l22,3l23,-1.125l9.5,-1.375l1,-1l1.5,1.5l0,1l-1.5,1.5l-7.5,1.375" style="fill:#038302;stroke:#038300;stroke-width:1px;stroke-linecap:butt;stroke-miterlimit:2;"/></g><g><path d="M589.75,630.75l-2.25,0.25l-4.5,-4.5l0,-2l0.5,-0.5l1,1l1,0l4.5,4.5l-0.25,1.25" style="fill:#038302;stroke:#038300;stroke-width:1px;stroke-linecap:butt;stroke-miterlimit:2;"/></g><g><path d="M957.5,606l-2.5,-0.625l-4.75,-2.625l-0.5,-1.5l-1.5,-0.5l-0.25,-1.25l-2,-2l-1,-6l0,-0.5l-1,0.5l-4.25,6.25l-3.75,2.75l-4,2l-1.5,-0.5l-1,-1l-1,1l-1.5,-1.5l-0.5,-1.5l-1,-2l-0.25,-2l2.375,-9l2.875,-6l3,-5l0.5,-1.5l2.5,-2.5l1.25,-0.25l0.5,-1.5l1.5,-0.5l2.25,-4.25l3.5,-3.5l1.25,-0.25l3.25,-12.25l1.5,-1.5l5,-1l2,2l3.375,0.25l-0.5,5.75l-0.75,3l-0.875,5l1.125,30l-0.875,5.5l0.5,0.5l1.5,-1.5l0.25,-1.25l2.5,0l-0.375,2.75l-3.625,5.75l-1.25,0.25l-2,2m-16.5,-15l0,-0.5l2.125,-4.5l0.875,-11.5l-1,-0.5l0,0.5l-0.625,2.5l-1.625,4l-0.75,9.5l1,0.5" style="fill:#038302;stroke:#038300;stroke-width:1px;stroke-linecap:butt;stroke-miterlimit:2;"/></g><g><path d="M918,627.5l-1.5,0.5l-1,-1l-1,1l-2.25,-0.25l-4.625,-8.75l-0.875,-4l-0.75,-14l-1,0.5l-2,4l-3.5,3.5l-4,2l-0.5,0.5l3,3l-2.5,2.5l-1.5,0.375l-4,0l-2,-0.875l-1.5,-0.5l-1.5,-1.5l-0.375,-2.5l-0.125,-5l1.125,-4l0.75,-2l0.625,-2.5l2,-2l5,-9l2.5,-2.5l5.5,-3.25l5,-0.875l1.625,-26.875l2.875,-17l4.875,-17l0.625,-5.5l0.5,-0.5l1,1l0.5,-0.5l0,-1l0.5,-0.5l1,1l0.5,-0.5l0.25,-1.25l1.25,-0.25l1,-1l3,3l3.25,1.25l0.25,3.25l-2,2l-0.5,1.5l-0.875,2l-1.125,4l-2.875,22l-0.625,66.5l2,2l-0.625,2.5l-3.625,5.75l-1.75,0.75m-20.5,-21.5l3.5,-3.5l2,-4l2,-2l1.625,-9.5l0.125,-2.75l-1.75,0.25l-1.5,0.5l-2.5,2.5l-2,7l-2,2l0,9l0.5,0.5" style="fill:#038302;stroke:#038300;stroke-width:1px;stroke-linecap:butt;stroke-miterlimit:2;"/></g><g><path d="M541,943.5l-2,0.13l-8,-3.13l-14,-9l-2,-0.75l-5,-1.25l-5,0l-4,1.125l-4,1.875l-5,2.875l-2.5,0.625l-2,2l-4,1l-2,2l-2,0l-2,2l-2.5,0.63l-4,1.87l-9,5l-8.5,5.5l-2.5,1.38l-5,2l-2.5,0.62l-2,2l-2.5,0.38l-8,2l-7,1.25l-4,-0.13l-11,-3.12l-14,-5.75l-3.5,-0.63l-2,-2l-8.5,-4.37l-9,-3l-6,-0.13l-3.5,0.5l-2,2l-1,0l-2,-2l-5,0l-2,-2l-2.5,-0.5l-10,-4l-6,-2.875l-3.75,-0.375l-0.75,1.75l-1,2l-0.5,1.5l-3,3l-1,4l-1.5,1.5l-1.25,0.25l-4.5,6.5l-1.75,0.75l-4,1.88l-3,0.12l-3.5,-0.5l-1,1l-1,-1l-2.5,-0.62l-2.5,-1.38l-3,-2l-2,-1l-3.5,-3.5l0,-1l-3,-3l-0.625,-2.5l-1.875,-5l-0.5,-2.5l-3.5,-3.5l-2,-1l-6,-4l-2,-1l-3,-3l-6,-1l-1,-1l-1,1l-1.5,-0.5l-8,-3l-4,-1.125l-2,-0.75l-4,-1.125l-3,-1.125l-7.5,-5.375l-5.5,-5.5l-1.5,-2.5l-2.5,-3.5l-5.375,-10.5l-2.125,-5l-5,-12l-4,-9l-3.75,-10.75l-3.75,-0.875l-1.75,-0.625l-0.625,-1.75l0.125,-6l-6.25,-29l-1.125,-3l-0.375,-1.5l-2,-2l-0.625,-2.5l-1.875,-5l-1.125,-4l-1.75,-5l-7.125,-29l-3.875,-14l-2.625,-19.5l-2,-2l1,-1l-2,-2l1,-1l-1,-4l-2,-2l0,-3l2,-2l0.5,-10.5l-2.5,-14.5l-4,-4l0,-2l3.5,-3.5l3.5,0.625l1.5,0.375l2,-2l2.5,0.625l4.5,2.375l2,2l1,-1l1,1l1.5,0.5l9,7l1.75,0.25l0.5,-1.5l1.25,-0.25l1,1l2.5,-2.5l0,-1l2.5,-2.5l1,1l3.5,-0.5l4,-1.125l2,0l3,0.875l14,0l8,1.5l6.5,-0.75l1,1l1,-1l2,2l1.5,0.25l21,5.375l2,0.125l5.5,-0.75l1,1l1,-1l1,1l19.5,-1.125l0,-41.75l-6,-0.875l-57,1.5l-6,1l-2,0l-5.5,-0.75l-1,-1l-1,1l-18,-2l-1,-1l-1,1l-2,-2l-1.5,-0.375l-6,-2.25l-5.75,0.375l-0.25,-1.25l-1.5,-1.5l-8,-1l-1,-1l-2,2l-1,0l-1,1l-1,-1l-1,0l-1.5,-1.5l0.75,-4.5l-0.125,-2l-2.125,-8l-3.125,-36l-1,-5l-1.375,-4.5l-3,-3l0,-5l1.5,-1.5l1.5,-0.5l2,-0.125l2.5,0.625l2,2l1,-1l2,0l1.5,-1.5l0.25,-1.25l1.25,-0.25l1.5,-1.5l0,-1l2,-2l0.5,-2.5l1.875,-6l5,-60l-2.375,-14.5l-2,-2l-0.625,-2.5l-0.125,-1.75l1.25,-0.25l2,-2l3,0l2,2l9,-1l2,-2l1,0l6.5,-6.5l0.5,-1.5l3.125,-7l0.625,-2l3.25,-15l8,-29l2,-12l3.125,-12l0.375,-2.5l2,-2l1,-3l2.5,-2.5l19.5,-0.875l3,-0.625l3,-1.125l7,-3.875l1.5,-0.5l5.5,-5.5l6.5,-10.5l0.375,-2l-0.125,-12l0.875,-3l5.875,-10l0.75,-1.75l1.5,-0.5l0.25,-1.25l6.5,-6.5l1.5,-0.5l9,-3.875l4,0l2,0.625l6.875,0l0.125,4.25l1.5,1.5l1,0l9,9l2.5,-0.5l5,-2l7,-3l28,-7.125l2,-0.875l2,-0.625l17,-0.125l14,2.625l12.5,0.625l1,1l1,-1l2.5,-0.625l8.5,-3.375l2,-2l2,0l6.5,-6.5l2.5,-3.5l8.5,-10.5l1.5,-1.5l4.5,-1.375l12.5,0.375l2,2l2.5,0.625l10.75,8.625l0.5,1.5l5.25,3.25l3,3l2.5,0.625l2,0.75l4,0.25l7,-1.125l15,-3.875l3,-1.125l3,-0.875l6,-0.875l18,0l4,0.75l18,6.75l8,1.5l2,-0.125l10,-2.25l3,-1l2.5,-1.375l12.5,-8.5l2,-1l1.5,-0.5l2,-2l2,0l2.5,2.5l0,1l1.5,1.5l1.5,0.5l2,0l2,-0.875l3,-0.875l11,-1.5l3,0.25l4,1l5.5,0.5l1.5,1.5l-0.25,1.25l-3.75,0.25l0.5,1l1,0l2,2l2,0l2.5,2.5l2.375,4.5l0.875,3l0.75,11.75l6,1.625l6.5,0.625l1,1l1,-1l1,1l3.5,0.625l1.5,0.375l2,2l4.25,1.25l0.5,1.5l1.5,0.5l8.75,13.75l7,18l4.5,26.5l-1,1l0.5,0.5l1,0l1.5,1.5l0,1l2,2l-1,1l0.5,0.5l1.25,0.25l0.5,1.5l1.5,0.5l0.75,1.75l8.875,15l4.125,10l3.875,9l7,28l3.125,18l4.5,16.5l1.5,1.5l1,0l1.5,1.5l2,4l2,2l-3,122l-5,5l-0.5,1.5l0,5l-0.5,3.5l-3,3l-1.5,5.5l-1.125,3l-0.375,1.5l-2,2l-1,4l-2,2l-0.5,2.5l-6.75,25l-1.25,7l-1.25,5l-0.25,1.5l2,2l-1,1l0,5l-2,2l-0.5,1.5l-0.875,2l-6.125,23l-2,11l-5.125,18l-5.875,14l-1,2l-0.5,1.5l-2,2l0,3l-1.5,1.5l-5,3l-2,2l-2.5,-0.5l-3,-1.125l-13,-6.75l-3,-1.25l-2.5,0.625l-2.5,1.5l-1.5,0.5l-6.5,6.5l-7.375,14.5l-2.875,7l-1.75,9.5l1.5,1.5l7.25,0.125l0.5,1.625l1.25,0.25l4.5,4.5l2.375,4.5l1,3l1,5l-0.125,13l-0.75,4l-2.125,6l-3.875,8l-2,3l-3.5,4.5l-2,3l-1.5,1.5l-3,1l-2,2l-2,0l-2,2l-1.5,0.5l-2,1l-2,0.625l-13,0l-3.5,-1.125l-2,-2l-1,1l-1,-1l-6.25,-4.25l-2.75,-4.75l-0.5,-1.5l-1.5,-1.5l-1.5,0.375l-10,3.125l-2.5,0.5l-2,2l-1.5,0.5l-6.5,3.5l-15.5,15.5l-1,2l-10,15l-1,2l-10.5,10.5l-1.5,0.5l-2,1m-246.5,-616.5l1.5,-1.5l0,-9.25l-1.5,-0.25l-1.5,1.5l-0.625,2.5l-2,5l-0.125,1.75l1.75,-0.25l2.5,0.5m15.25,-2.25l-0.25,-1.75l-2,-4l-0.5,-1.5l-0.5,-0.5l-1,1l-1,-1l-0.5,0.5l0.125,5.25l1.875,0.75l2,1l1.75,0.25m4.25,-1.75l0,-1l-1,0l0,1l1,0m2.5,5l1.5,-1.5l-1,-1l-0.25,-1.25l-1.25,-0.25l-1,-1l-0.5,0.5l1.25,4.25l1.25,0.25m278.5,-13.5l6,-1.875l11.5,-1.625l1.5,-1.5l0.5,-2.5l-0.125,-3l-0.625,-1.75l-1.25,-0.25l-3,-3l-2,2l-2,1l-8.5,5.375l-5,1.875l-6,1.125l-16,-0.125l-5,-0.875l-17,-6.75l-4,-1.125l-9,-0.125l-10,2.125l-3,1.125l-15,3.875l-11,2l-4,0.125l-8,-1.375l-3,-0.875l-6.5,-3.375l-8,-6l-2.5,-2.5l-1,-4l-2.5,-2.5l-2.5,-0.375l-6,0.125l-1.5,0.25l-2.5,2.5l-2,3l-8,10l-6.5,6.5l-2,0l-2,2l-8.5,3.375l-3,0.875l-17,0l-14,-2.5l-16,0.125l-9,2.625l-21,5.125l-3,1l-8,3.75l-3.75,0.875l0.25,3.75l0.75,3l9.75,-0.5l22,-2.875l208,-11.375l12,-2.75l6,-1l12,-3m-274.125,22.25l0,-5.5l-3.75,0l0,5.5l3.75,0m-29.875,2.25l0,-5.5l1,-1l-0.5,-0.5l-2.375,0.25l0.625,5.25l1.25,1.5m14,0.375l2,-0.75l2.875,-0.875l0,-5.5l-2.375,-0.25l-1.5,1.5l0,2l-4,4l0.5,0.5l2.5,-0.625m288,525.125l8.5,-1.5l1.5,-1.5l0.5,-4.5l3.125,-10l0.375,-1.5l5.5,-5.5l1.5,-0.5l6,-2.875l4,-1.125l5,0.25l5.5,-0.75l0.5,-0.5l-1,-1l1.5,-1.5l3.5,-0.625l2,0.125l1.5,0.5l0.5,-0.5l-1,-1l-2,-4l1.5,-1.5l1,0l1.5,1.5l0,1l1,0.5l-1.125,-478.875l-7.375,0.875l-1,-1l-1,1l-3.5,-0.5l-8,-2l-3,-1.125l-1.5,-0.375l-1.5,-1.5l-1,-2l-2.5,-3.5l-1.75,-3l-0.75,-4.5l-1,-1l1,-1l1,-15l-0.5,-0.5l-1,1l-5.5,0.5l-34,8l-12,2l-234.75,14.625l-0.75,1.875l-4.5,8.5l-6.5,6.5l-1.5,0.5l-2,1l-2,0.75l-4.5,0.75l-1.5,1.5l-1.5,230.5l-0.5,3.5l1,1l-1,1l2,47.25l3,0.625l142.5,-4.375l1,1l1,-1l1,1l12.5,0.375l2.5,-0.375l2,2l10,1l1,-1l1,1l24.5,1.75l4,-0.25l6,-1.25l6,0.25l2.5,-0.5l1,-1l1,1l1,-1l32.5,-4.75l31.5,-1.25l0.5,-0.5l-1,-1l0,-1l1.5,-1.5l1,0l1.5,1.5l1,3l1.5,1.5l4,0l3,3l1,-1l1,1l1,-1l2,2l1,-1l1,1l1,-1l8,-1l1,1l1,-1l1,1l1,0l4.5,4.5l1.25,3.25l4.5,1.5l0.625,1.75l0,4l-1.625,4l-1.75,9.5l2,2l0.625,2.5l-0.125,2l-0.5,1.5l-2.5,2.5l-5,0l-1.5,-1.5l-0.25,-1.25l-1.75,-0.625l-3.75,-0.375l-0.25,1.25l-1.5,1.5l-3.5,0.5l-3,0l-2.5,-0.5l-1,1l-1,-1l-4,-2l-1,-1l-1,1l-2.5,-0.375l-5,-0.125l-8.5,1.5l-2,-2l-9.5,1.625l-7,0l-2,0.875l-1.5,0.5l-2,-2l-30,-2l-2,2l-1,-1l-2,0l-2,-2l-3.5,0.5l-3,0.125l-14,-2.125l-7,0l-7.5,1.5l-1,1l-1,-1l-2.5,0.625l-7,2.75l-9,2.125l-25,8l-3,-0.125l-2,-0.25l-29.5,-0.125l-1,-1l-1,1l-1,-1l-5.5,0.75l-2,0.75l-2,1l-2.5,-0.5l-2,-1l-1,1l-1,-1l-46,1l-1,1l-1,-1l-28.5,3.875l-3.5,1.125l-2,-2l-5.375,1.25l-1.125,208.75l10,0.625l4,0.875l3,1l2.5,0.5l2,2l3,1l8,8l1,-1l12.5,-1.5l4,-1l27,-4l57,-11l12,-2l19,-5l62,-9l64,-17l4,-1m-275,-518.5l0,-0.5l0.5,-1.5l1,-2l0.5,-1.5l-0.5,-0.5l-1,1l-1.375,0.25l-0.125,4.25l1,0.5m-10,-3l0,-1l-1,0l0,1l1,0m-3.5,13l6.5,-6.5l0.5,-1.5l0.875,-2l0.625,-2.5l1,-1l-0.5,-0.5l-1,0l-2.5,2.5l-2.25,4.25l-6.5,4.5l0,1.5l3.25,1.25m0,-9l1.5,-1.5l0,-1l1,-1l-0.5,-0.5l-4.25,1.25l-0.25,1.25l1.5,1.5l1,0m12.5,0l0,-1l-1,0l0,1l1,0m312.5,-43l0.5,-0.5l0,-1l5,-5l-0.5,-0.5l-7,1l-1.5,1.5l3.5,4.5m12.5,-5l0,-1l-1,0l0,1l1,0m16.5,25l0.5,-0.5l0.5,-3.5l0,-6l-1.125,-4l-0.875,-2l-0.5,-1.5l-2.5,-2.5l-1.5,-0.5l-2,-1l-2,-0.75l-5.5,-0.75l-1,1l-1.5,-1.5l-0.25,-1.25l-2.25,-0.25l-2.5,2.5l-0.375,1.5l-0.375,2.875l4.25,0.125l2,-2l7,-1l2.5,2.5l-1,1l-0.5,1.5l-0.125,2l2.125,8l0.5,3.5l1.5,1.5l5,1m-23.5,-17l0,-1l-1,0l0,1l1,0m3.5,8l0.5,-0.5l-0.125,-4.375l-4.375,-0.125l-0.5,0.5l4.5,4.5m-7.5,6l0,-1l-1,0l0,1l1,0m6.5,15l2.5,-2.5l1,-4l1,-1l-1,-1l0,-1l-1.5,-1.5l-1.5,-0.5l-5,-3l-1.75,-0.25l0.375,3.75l0.375,1.5l2,2l0.5,3.5l0.75,2.75l2.25,1.25m20,-7l0.5,-1.5l-0.5,-0.5l-1,1l-2.5,-0.625l-1.75,-0.125l0.75,8.25l0.5,0.5l1.5,-1.5l0.5,-1.5l2,-4m-16,17l1.5,-1.5l0,-6l-1.5,-1.5l-0.5,0.5l0,1l-1.5,1.5l-3,0l-1,1l-1,-1l-1,1l-3,0l-0.5,1l1.5,0l3,3l7,1m16,454l0.5,-1.5l7.5,-7.5l4.5,-2.25l6,-0.125l3,1l13,6.75l3.5,0.625l3.5,-3.5l5.5,-14.5l2,-7l12,-50l2.5,-13.5l-1,-1l2,-2l5.5,-21.5l7,-18l3.875,-9l3.875,-11l0.75,-4.5l1,-1l-1,-1l1,-1l0.625,-2.5l1.875,-4l0.25,-2l-1,-6l1.5,-96l-3.25,-18.5l-1.5,-1.5l-1,0l-4.5,-4.5l-0.5,-1.5l-0.875,-2l-11.125,-49l-10.875,-29l-0.625,-3.5l-2,-2l-0.5,-1.5l-0.875,-2l-0.875,-3.75l-1.5,-0.5l-0.75,-1.75l-5,-7l-0.5,-1.5l-3,-3l-1.5,-11.5l-5,-18l-10.875,-28l-0.625,-3.5l-1.5,-1.5l-1.25,-0.25l-0.5,-1.5l-1.25,-0.25l-2,-2l-5,-1l-1,1l-2,-2l-3,0l-1.5,1.5l-0.625,2.5l-4.375,8.5l-2,2l2.5,17.5l-6.5,454.5l1,0.5l0,-0.5l0.375,-1.5l3.125,-7.5l3,-4.5m-364.75,-155.25l-0.75,-281.25l-1.5,-1.5l-6,-1l-1,-1l-1,1l-3,-1l-1.5,-1.5l-0.25,-1.25l-2.25,-1.25l-2.25,-0.75l-0.75,1.75l-1,2l-3.5,5.5l-6.5,6.5l-1.5,0.5l-7,3.875l-3,1.25l-2,0.5l-21.75,2l-1.25,3.375l-2,2l-0.5,3.5l-2.875,11l-4.125,23l-1.875,5l-5.125,17l-1,6l-1.25,5l-0.75,2l-1,2l-3.75,8.75l-7.25,5.25l-4,4l-2.5,-0.5l-4,0.125l-1.5,0.375l-2.5,2.5l1.625,41.5l-2.125,17l-4.125,22l-3.375,6.5l-6,8l-1.5,1.5l-2,0l-1,-1l-2.5,2.5l1.375,7.5l3.375,36l2.25,10.5l2.5,2.5l2,0l2,2l7.5,0.75l3,0.875l5,1.875l3,0.875l4.75,0.75l0.5,1.75l4.75,0.875l2,0.625l6,-0.125l10,1.375l31.5,-1.625l1,-1l1,1l41.25,0.75m23.25,-295.75l0,-1l-1,0l0,1l1,0m304.5,326l3,-3l1,0l1.5,-1.5l0,-8.25l-1.5,-0.25l-2.5,-2.5l0,-4l2,-2l0,-2l-2,-2l0,-1l-2.5,-2.5l-11.5,1.625l-5,-0.25l-2.5,-0.375l-2,2l-4.5,-0.75l-1.75,-0.5l-0.5,-1.5l-3.25,-0.25l-2,-2l-1.5,-0.5l-2,-1l-6,0l-3,-0.375l-26,2.625l-5,-0.25l-4,1l-32.5,4.5l-1,1l-1,-1l-3,0l-1,-1l-1,1l-13.5,-0.375l-19,-2.375l-3,-0.625l-7,0.125l-7,-1.125l-31,-1.5l-21,2.625l-41.5,1.25l-1,-1l-1,1l-48,1l-1,1l-1,-1l-2,0l-1,-1l-0.5,0.5l-2,41.375l7,-0.625l5,0.5l40.5,-4.75l1,1l1,-1l1,1l47,-1l1,-1l1,1l37.5,0.125l5.5,-1.125l2,-2l4.5,-0.625l5,-1.75l14,-3.375l9,-3.5l12.5,-1.75l1,-1l1,1l18.5,1.75l6,-0.625l53,3.125l8,-1.75l4,-0.125l12.5,1.625l1,-1l1,1l1.25,-0.25l0.25,-1.25l1.5,-1.5l8.5,-0.375l1.5,0.375l2,2l6,1m-341,257l0.5,-0.5l0.625,-6.5l1.375,-6.5l5.5,-5.5l1,0l1.5,-1.5l1.125,-9.5l-1.125,-84.5l-1,-1l1,-1l3,-121.5l-10,0.625l-6.5,1.375l-1,1l-2,-2l-1,1l-11,-1l-1,1l-2,-2l-1,0l-1,1l-1,-1l-4.5,-1.375l-8,-1.875l-7.75,-0.875l-0.5,-1.625l-1.75,-0.5l-6,-0.125l-2.5,0.375l-1,1l-1,-1l-1.25,-0.25l-0.5,-1.5l-22.5,0.75l-0.25,1.5l-2.5,2.5l-2,0l-1,-1l-2,2l-8.5,1.75l-2,0.625l-3.5,0.625l-2,-2l-3,-1l-1.5,-1.5l0,-2l-3.5,-3.5l-1,1l-5,-1l-0.5,0.5l1,1l2.875,24.5l0.5,2l0.625,3.5l-2,2l0,2l2,2l6,37l2,2l0.5,5.5l6.25,25l1.5,4l2.375,8l0.875,2l0.5,1.5l2,2l0.5,2.5l1,3l5.75,27.75l2.25,0.25l2.5,2.5l0.75,4.5l3.75,11l4,9l6.125,15l6.375,12.5l2.5,3.5l1.5,2.5l4.5,4.5l1,0l5,5l3,0l2,2l3.5,0.5l22.5,6.5l2,2l1.5,0.5l6,3.5l4.5,4m360,-95l1.5,-1.5l-0.5,-0.5l-1.25,0.75l0.25,1.25m5.5,1l0,-1.5l-1,-0.5l0,1l1,1m13.5,43l3,-6l2,-5l0.75,-3l0,-17l-0.875,-4l-2.375,-4.5l-4.5,-4.5l-6.5,-0.875l-1,16.375l0.5,0.5l1,-1l4,-1l1,-1l1,1l2,-2l1.5,1.5l0,3l-1,1l1,1l-1,1l0,1l-1.5,1.5l-9,-1l-1.5,1.5l1,14l-1.5,1.5l-2,0l-1.5,-1.5l0,-10l-0.5,-0.5l-1,1l-3.5,0.625l-2,-0.125l-1.75,-0.75l-0.25,-1.25l-1,-0.5l0,0.5l-0.625,2.5l-2,5l-4.375,8.5l-2.5,2.5l-1,0l-1.5,1.5l0,1l2.5,2.5l1.25,0.25l0.25,1.25l1.5,1.5l2,1l5.5,3.5l5,2.125l2,-0.125l2,-0.875l4,-1.25l2,-0.875l1.5,-0.5l1.5,-1.5l2,-3.5l4.5,-6m-14.5,-28.25l0,-14.25l-1,-0.5l0,0.5l-0.5,1.5l-3,6l-0.5,1.5l1,1l-3,3l0.5,0.5l2,0l1,1l1,-1l1,1l1.5,-0.25m-31,7.75l10,-3l6.5,-1.5l1.5,-1.5l0,-2l-1,-1l1,-1l-1,-1l1,-1l0,-9.5l-9,0.75l-4.5,1.25l-2,2l-1,0l-4.5,4.5l-1,13.25l4,-0.25m22.5,-18.5l0.5,-1l-1.5,0l-0.5,1l1.5,0m-0.5,6l0,-1l-1,0l0,1l1,0m-16.5,32l1,-1l1,0l3.5,-3.5l5.625,-14.5l0.375,-1.5l-0.5,-0.5l-1,1l-2.5,0.5l-14.75,4.75l0.375,2.75l0.75,2l0.625,2.5l2,2l0.5,2l3,3.5m-321,45l1,-1l4.5,-0.5l10,-3l2.5,-0.5l0.5,-0.5l-1,-1l-0.5,-1.5l-2.875,-5l-0.875,-3.75l-3.25,-1.25l-1,-1l-1,1l-3,-1l-0.5,0.5l1,1l1.5,5.5l0.5,3.5l-1.5,1.5l-1,0l-1,1l-1,-1l-2,0l-1,-1l-0.5,0.5l0,7l0.5,0.5m24.5,-6.5l3.5,-0.5l0.5,-0.5l-5.5,-5.5l-1.5,-0.5l-4.5,-2.5l-0.5,0.5l1,1l3.5,6.5l0.75,1.75l2.75,-0.25m-21.5,24.5l0.5,-0.5l2,-14l-0.5,-0.5l-2,2l-2,0l-2,2l-3.25,-0.25l-0.5,-1.5l-1.5,-0.5l-0.25,-1.25l2,-2l0,-12l-0.5,-0.5l-2,2l-1.25,0.25l-0.5,1.5l-1.25,0.25l-2.5,2.5l0.5,2.5l2.125,6l2.875,5l0.5,1.5l2.5,2.5l2.5,1l4.5,4m241,-3l10.5,-10.5l1,-2l10.5,-15.5l1.5,-2.5l15.5,-15.5l1.5,-0.5l9,-5l1.5,-0.5l2,-2l5.5,-0.625l4.75,-1.625l-0.25,-2.75l-2.75,-12.75l-3.75,0.25l-25,6l-18,6.875l-6,0l-16,4.375l-12,4.625l-5,-0.125l-10,2l-13,2.375l-3,0.75l-31,2.5l-17,4.5l-13.5,1.625l-2,2l-28.5,4.75l-5,1.75l-3,0.75l-47,6.5l-2,0.5l-9.5,1.75l-0.5,0.5l1,1l-1,1l0,7l-1,1l0.5,0.5l2,0l2,2l1.5,0.5l4,2l10,4l2.5,0.5l2,2l1,0l1,-1l1,1l6.5,-0.62l3,-0.88l4,0l12,4.13l2,0.87l7,4l22,8.88l3,0.87l10,0.13l12.5,-2.38l2,-2l2.5,-0.62l5,-2l2.5,-1.38l8.5,-5.5l6,-3l1.5,-0.5l2,-2l2.5,-0.62l2,-0.88l1.5,-0.5l2,-2l2,0l2,-2l2.5,-0.625l11,-5.875l4,-1.875l3,-0.875l13,0.125l2,0.625l11,7l1.5,0.5l2,2l2,0l2,2l6,1m-214.75,-7.25l0.75,-3.75l0.5,-5.5l-0.5,-0.5l-1,1l-4.25,0.125l0.75,2.375l1.375,2.5l0.875,3.75l1.5,0m-20,10l2.25,-4.25l1.5,-1.5l4.5,-2.5l2,-0.75l4.5,-0.75l0.5,-0.5l-1,-1l-0.625,-2.5l-1.625,-3.875l-4.75,0.625l-1.75,0.5l-0.5,1.5l-1.5,0.5l-0.25,1.25l-1.5,1.5l-2.25,0.25l-0.5,1.75l-0.75,9.75l1.75,0m8.25,5.63l1.5,-0.38l3.5,-3.5l1.625,-5.5l0.125,-1.75l-1.25,-0.25l-1,-1l-1,1l-2,0l-2,2l-1,0l-1.5,1.5l-2,4l-2,2l1.5,1.5l5.5,0.38" style="fill:#038302;stroke:#038300;stroke-width:1px;stroke-linecap:butt;stroke-miterlimit:2;"/></g><g><path d="M858,298.25l-6,0l-3.5,-1.25l-1.5,-1.5l-0.5,-1.5l-1.875,-4l-1,-3l-1,-6l-0.125,-11l2,-14l2,-7l2,-5l2.5,-4.5l4.5,-4.5l1.5,-0.5l2,-0.875l3.75,-0.375l0,2.5l-2.25,0.25l-1.5,1.5l0,55l0.5,0.5l2.5,-2.5l0.5,-1.5l2,-5l2,-8l5.5,-59.5l2.5,-2.5l2.5,2.5l0,1l-2,2l-5.5,59.5l-2,7l-2.5,6.5l-5.5,5.5l-1.5,0.25m1,-4.25l0,-1l-1,0l0,1l1,0" style="fill:#038302;stroke:#038300;stroke-width:1px;stroke-linecap:butt;stroke-miterlimit:2;"/></g><g><path d="M939.5,290l-2.5,-1.5l-1.5,-0.5l-2.5,-2.5l-2,-4l-3,-3l-0.625,-2.5l-5.875,-19l-0.5,-3.5l0,-0.5l-1,0.5l-0.5,3.5l-1,4l-3,18l0.25,9.75l-3.5,0.5l-1.5,6.5l-1.25,0.25l-1,1l-1,-1l-3,0l-3.5,-3.5l-6.5,-49.5l-8,-30l-1,-6l0.125,-5l1.375,-4.5l0.5,-0.5l1,1l2.5,-0.625l4,0.125l1.75,-0.25l2.625,6.75l13.125,58l0.5,7l1,-0.5l0.5,-4.5l3,-13l2.5,-7.5l2.5,-2.5l4,1l3.5,3.5l0.375,1.5l9.25,28l2.75,6l0.875,3.75l1.25,0.25l4.5,-4.5l0.625,-2.5l4.875,-11l3,-12l4.375,-39l0.375,-1.75l2.75,0l-0.625,15.75l-3.875,28l-3,11l-2,5l-4,8l-0.5,1.5l-4.5,4.5l-6,1l-1,1" style="fill:#038302;stroke:#038300;stroke-width:1px;stroke-linecap:butt;stroke-miterlimit:2;"/></g><g><path d="M825.5,304l-2,-2l-1,1l-8.5,0.5l-6,-2.125l-4,-1.875l-4.5,-2.5l-3.5,-3.5l-0.375,-1.5l-1.125,-3l0,-3l2,-5l3.5,-5.5l1.5,-1.5l1.5,-0.375l2.75,-0.375l-1.25,2.75l-3,4l-1.5,2.5l-2,2l1,7l2.5,2.5l1,0l3,3l2.5,0.625l5,1.75l6.5,0.625l1.5,-1.5l-1.5,-1.5l-2,0l-0.5,-0.5l1,-1l-0.75,-4.5l-2.75,-7l-10,-21l-0.5,-1.5l-2,-2l-0.625,-2.5l-1.625,-4l-2.25,-12l0,-9l1.125,-6l1,-3l1.875,-4l3.5,-5.5l1.5,-1.5l4.5,-2.5l1.5,-0.5l2,-2l3.5,-0.625l2,0.125l4,2l1.5,0.5l5.5,5.5l0,1l1,1l-1.5,1.5l-1,0l-2.5,-2.5l0,-1l-2.5,-2.5l-1,0l-2,-2l-2,0l-1,-1l-1,1l-2,0l-3.5,3.5l-0.375,17.5l3.875,25l5,13l9.875,21l1,3l-0.125,7l-0.5,1.75l-4.25,1.25l-1,1" style="fill:#038302;stroke:#038300;stroke-width:1px;stroke-linecap:butt;stroke-miterlimit:2;"/></g><g><path d="M822.5,160l-3,0l-2,-2l-1,0l-3.5,-3.5l-4.375,-6.5l-1.125,-3l-0.75,-3l0,-10l0.75,-3l1.75,-4.75l1.5,-0.5l0.25,-1.25l1.5,-1.5l1.25,-0.25l0.25,-1.25l1.5,-1.5l1,1l3.5,0.625l1.5,0.375l1.5,1.5l0,2l-1.5,1.5l-1.375,0.25l0.875,15.25l1,1l-1,1l1,1l1,7l1.5,1.5l0.5,-0.5l0.375,-1.5l1.125,-3l2,-12l-0.125,-9l-1.375,-9.5l-1.5,-1.5l-1,0l-2,2l-3,0l-2.5,-2.5l0,-1l-1,-1l1,-1l0,-1l2.5,-2.5l3,0l3,3l1,0l2.5,2.5l0.375,1.5l1.125,3l0.75,4l0,18l-0.875,6l-0.875,3l-2.5,6.5l-4.5,4.5m1.5,-7l0,-1l-1,0l0,1l1,0" style="fill:#038302;stroke:#038300;stroke-width:1px;stroke-linecap:butt;stroke-miterlimit:2;"/></g><g><path d="M777,167.5l-3.5,-0.5l-1.5,-1.5l-1,-3l-2,-2l-1,-5l-3,-3l0.25,-1.25l1.25,-0.25l1.5,-1.5l0.25,-1.375l4.5,0l0.25,1.375l1.5,1.5l0.5,-0.5l2.5,-15.5l1.125,-4l0.875,-2l2.5,-4.5l6.5,-6.5l9,-1l1.5,1.5l-0.25,1.375l-7.25,0.125l-7.5,7.5l-0.5,1.5l-1.875,4l-1,4l-1.125,7l-0.5,10.5l-1,1l1,1l0,2l3,3l-0.25,3.25l-4.75,2.75" style="fill:#038302;stroke:#038300;stroke-width:1px;stroke-linecap:butt;stroke-miterlimit:2;"/></g><g><path d="M731.75,186.875l-5.25,0.125l-3,-3l-1,0l-4.5,-4.5l-4,-6l-2,-2l0,-2l-1.5,-1.5l-0.5,0.5l-1.5,6.5l-1.125,3l-2.375,4.5l-4.5,4.5l-1.25,0.25l-0.5,1.5l-1.75,0.75l-2,0l-1.5,-0.5l-5.5,-5.5l-3.375,-6.5l-1.125,-3l-1,-4l-2.5,-16.5l1,-1l-1,-1l0,-2l1.5,-1.5l4.5,-2.375l2.5,-0.625l1,-1l2.5,2.5l0.5,2.5l1.875,6l4.625,22.5l1,1l-1,1l1,1l0,1l0.5,0.5l2.5,-2.5l0.5,-1.5l2,-5l1,-4l1.125,-3l0,-2l-0.625,-2.5l-1,-1l1,-1l0.25,-2.25l2.25,-0.25l2,-2l5,0l2,2l1.25,0.25l0.875,3.75l5.875,12l2.5,4.5l1.5,1.5l1.25,-0.25l12.75,-49.75l0.5,-4.5l2.5,-2.5l3.375,1.25l-0.625,4.75l-0.5,1.75l-1.25,0.25l-1.5,1.5l-0.5,4.5l-7,31l-5.125,14l-2.625,5.875" style="fill:#038302;stroke:#038300;stroke-width:1px;stroke-linecap:butt;stroke-miterlimit:2;"/></g><g><path d="M629.5,214l-3,-1l-2.5,-2.5l-0.25,-1.25l-1.5,-0.5l-9,-34.75l-0.25,-1.5l-0.5,-0.5l-1,1l-2.5,0.5l-8.75,2.75l-2.75,8.75l-2,11l0.25,9.75l-1.5,0.5l-0.5,2.625l-4.5,0l-0.25,-3.375l3,-3l0.625,-10.5l2.375,-12.5l1,-1l-1,-1l0,-1l-1,-1l1.5,-1.5l1.25,-0.25l9.625,-32.75l0.625,-5.5l-1,-1l1,-1l1.25,-3.25l1.25,-0.25l1,1l1,-1l1,0l1,-1l1,1l1,-1l1.25,0.25l3.625,5.75l6.125,23l0.5,4.5l0.5,0.5l1,-1l1.5,-0.375l10,-3.125l4.75,-0.375l0.25,1.375l-1.5,1.5l-8.5,2.5l-6.75,2.75l0,1.75l8.25,35l0,3l-1.125,3l-0.375,1.5l-2.5,2.5l-2,0l-1,1m-25.5,-42.5l3,-1l3.5,-0.5l1.5,-1.5l-0.5,-5.5l-2,-10l-0.5,-4.5l-1,-0.5l0,0.5l-0.375,1.5l-1.125,3l-4,14l-0.5,3.5l-1,1l0.5,0.5l2.5,-0.5" style="fill:#038302;stroke:#038300;stroke-width:1px;stroke-linecap:butt;stroke-miterlimit:2;"/></g><g><path d="M1042.5,610l-2.5,1.5l-4.5,2.5l-3,2l-2,1l-4.5,-4.5l-1.125,-4.5l-0.875,-28l-1,0.5l-0.5,1.5l-8.5,14.5l-5,5l-0.625,3.5l-0.625,1.875l-7.25,-0.875l-4.5,-4.5l0.5,-6.5l2,-9l2,-5l2,-4l0.5,-1.5l3,-3l-0.5,-0.5l-17.5,-1.875l-1.75,0.125l-1.5,10.75l-0.75,19.75l-3.75,0.5l-0.25,3.25l-2,2l-0.25,1.25l-2.25,0.25l-2,-2l-2,0l-1.5,-1.5l-0.5,-12.5l3.5,-25.5l-2,-2l0.5,-3.5l0.75,-2.75l1.5,-0.5l0.5,-1.75l5.25,-39l4,-13l1.125,-3l2.375,-4.5l1.5,-1.5l2.25,0.25l-0.125,2.75l-0.75,5l-2.75,64l23.375,1l2,-2l1,0l1.5,-1.5l0,-1l2.5,-2.5l3.5,0.625l1.75,0.625l0.625,1.75l0,3l-0.625,1.75l-1.75,0.5l-4.5,0.75l-2.5,2.5l1,1l-1,1l-1.25,3.5l-1.125,5l-0.625,9.5l0.5,0.5l2.5,-2.5l0.5,-1.5l11.5,-19.5l3,-3l-1,-1l0.25,-1.25l1.75,-0.5l5,-0.125l2.875,0.625l2.125,42.25l0.5,0.5l1,-1l2,-1l13,-11l5.5,-5.5l0.25,-1.25l1.5,-0.5l0.25,-1.25l1.5,-1.5l2.25,0.25l0.25,2.25l-4,4l0,1l-4.5,4.5l-13.5,11.5l-3.5,2.5" style="fill:#038302;stroke:#038300;stroke-width:1px;stroke-linecap:butt;stroke-miterlimit:2;"/></g><g><path d="M1070,140.5l-3.75,-0.75l0,-3.5l1.25,-0.25l1,-1l3.5,3.5l-0.25,1.25l-1.75,0.75" style="fill:#038302;stroke:#038300;stroke-width:1px;stroke-linecap:butt;stroke-miterlimit:2;"/></g><g><path d="M1122,262.375l-17,-0.125l-11.5,-2.25l-2,-2l-5,-3l-1.5,-1.5l-2.5,-4.5l-0.5,-1.5l-4.5,-4.5l-0.5,0.5l-1.5,2.5l-5,7l-8.5,10.5l-3.5,3.5l-1,0l-2,2l-12.5,0.25l-3.5,-1.25l-2.5,-2.5l-3.375,-5.5l-2.125,-6l-0.5,-2.5l0,-0.5l-1,0.5l-0.5,3.5l-4,16l-1.875,5l-0.625,2.5l-2,2l-0.25,3.25l-2.25,0.25l-2,2l-4.25,-0.125l-1.5,-3.625l-1.5,-0.5l-1.625,-4.75l-0.75,-4l-0.875,-33.5l1,-1l-1,-1l0,-5l-1.5,-1.5l-2.5,0.625l-4,1.875l-1.5,0.5l-6.5,6.5l-1.25,3.5l-0.5,25l-1.25,6.5l-3.5,3.5l-6.25,0.875l-0.625,-1.875l-0.75,-4l-4.875,-80l-1,0.5l-2,4l-6.5,6.5l-3,1l-1,1l-1,-1l-6.5,-0.625l-3,-0.875l-3,-1.125l-5.5,-3.375l-2.5,-2.5l0.25,-1.25l1.25,-0.25l1,-1l3,3l4.5,2.375l3,1.125l3.5,0.5l1.5,-1.5l0.5,-1.5l3.875,-9l6.125,-23l6.125,-47l1.375,-5.5l-2.5,-2.5l-1.5,0.5l-6.5,3.5l-9.5,6.5l-10.5,7.5l-2.5,1.375l-8,2.375l-1.5,0.25l-1,-1l-1,1l-1,-1l-1,1l-2.5,1.5l-3.5,2.5l-2.5,1.5l-1.5,0.5l-2,2l-2.5,0.625l-4,1.75l-3,1l-6,1.25l-3,0l-6,-1.25l-3,-1l-4.5,-2.375l-5.5,-5.5l-0.5,-1.5l-3,-8l-0.5,-2.5l-0.5,-0.5l-1.5,1.5l-0.5,1.5l-1,2l-0.5,1.5l-6.5,6.5l-8,1l-3.5,-3.5l0,-1l-2,-2l-2.625,-11.5l-1,-3l0,-2l0.875,-3.75l2.25,-0.25l2,-2l5.25,0.125l3.5,5.875l1.75,14.5l1,1l-1,1l0.5,0.5l1,0l3.5,-3.5l0.5,-1.5l2,-4l0.75,-2l0.5,-10l0.25,-1.5l2.5,-2.5l4,0l1,-1l0.5,0.5l0,1l1.5,1.5l1.25,0.25l0.5,1.5l1.5,0.5l6.25,26.25l4.5,4.5l1.5,0.25l8,0l3,-0.875l5,-2l12.5,-7.375l0.5,-0.5l-3,-3l-0.625,-2.5l-0.75,-2l-0.25,-3l2.25,-9l1.875,-4l3,-5l0.5,-1.5l1.5,-1.5l3,0l1,1l1,-1l3.5,3.5l0.5,1.5l2.75,7l0,5l-0.75,2l-4.5,6.5l-3,3l1.5,1.5l1,-1l3.5,-0.625l2.5,-1.375l9.5,-6.5l4,-3l11,-7l2,-0.75l6,0l4.5,2.25l3.5,3.5l0.5,1.5l0.875,2l1,3l1.125,7l-1.125,25l-1.875,12l-1,4l-0.5,3.5l-1,1l1,1l0.25,1.25l1.5,0.5l1.625,7.75l4.625,52.5l0.5,0.5l6,-6l6.5,-3.375l3,-1.25l2,0l7.75,2.875l0.5,1.5l1.25,0.25l2.5,2.5l0,2l2,2l3,30.5l1,-0.5l0.5,-3.5l5,-21l5.5,-15.5l4.5,-4.5l2.25,0.25l0.25,1.25l0.5,0.5l1,-1l0.5,0.5l0,1l3,3l2,35l1.5,1.5l4,0l2,-2l1,0l3.5,-3.5l15.5,-20.5l1.5,-2.5l2.5,-2.5l3.5,0.625l1.5,0.375l1,-1l1,1l1.25,0.25l0.875,2.75l6.875,12l0.5,1.5l5.5,5.5l7,1l1,1l1,-1l15.5,-0.625l6,-1.125l8.5,-3.25l5.5,-5.5l0.375,-1.5l2.875,-7.75l2.625,0l-0.625,4.75l-1.875,5l-0.375,1.5l-5.5,5.5l-4.5,2.375l-5,1.875l-5,1.25l-7,0.875m-187.5,-143.375l0.5,-0.5l0.25,-1.5l0.125,-5l-0.375,-2.5l-1,-0.5l0,7.5l-1,1l1.5,1.5" style="fill:#038302;stroke:#038300;stroke-width:1px;stroke-linecap:butt;stroke-miterlimit:2;"/></g><g><path d="M540.5,1581l-1,0l-2.5,-2.5l1,-1l-0.5,-0.5l-1,0l-1.5,-1.5l-0.5,-5.5l-5,-20l-0.875,-5l-0.625,-10.5l1.5,-1.5l1,0l1,1l0.5,-0.5l0.625,-6.5l1.375,-4.5l3.5,-3.5l6,-1l1.5,1.5l1,6l-1.5,1.5l-2,0l-2,-2l-1.5,-0.5l-1.75,-0.25l-0.625,1.75l-0.875,4l0.125,14l0.625,2l4,9l2,7l1.5,12.5l1,1l-1,1l0,1l-3.5,3.5" style="fill:#038302;stroke:#038300;stroke-width:1px;stroke-linecap:butt;stroke-miterlimit:2;"/></g><g><path d="M516.75,1582.75l-3.25,0.25l-1.5,-1.5l-4.5,-18.5l-6.875,-20l-0.5,-4.75l2.625,0l2.25,4.25l0,0.5l1,-0.5l1,-10l2.5,-2.5l1,0l2,-2l5.25,0.13l0.25,1.37l1,1l-1.5,1.5l-2.5,0.5l-5,1.75l0.875,16.75l0.625,2l4,9l0.875,3l1,6l-0.125,10l-0.5,1.75" style="fill:#038302;stroke:#038300;stroke-width:1px;stroke-linecap:butt;stroke-miterlimit:2;"/></g><g><path d="M482.75,1581.88l-4.75,-0.63l-1.75,-0.5l-2.75,-4.75l-2,-5l-1,-4l-0.875,-5l0,-13l1,-6l1,-3l1.875,-4l0.5,-1.5l3,-3l-1,-4l2.5,-2.5l1.5,1.5l0.125,4.25l3.375,0.25l1.5,1.5l-0.25,1.25l-3.25,0.25l-0.5,0.5l1,1l0.5,3.5l5,16l0.75,4l-0.25,16.5l-3,3l-0.25,1.25l-1.5,0.5l-0.5,1.63m2.75,-12.88l0.5,-0.5l-0.625,-7.5l-0.875,-4l-6.5,-20.5l-0.5,-0.5l-1.5,1.5l0.875,15.5l1.375,4l0.75,4.5l2,2.5l4.5,5" style="fill:#038302;stroke:#038300;stroke-width:1px;stroke-linecap:butt;stroke-miterlimit:2;"/></g><g><path d="M740,1565.38l-4.5,-0.38l-1.5,-1.5l-0.375,-1.5l-1.125,-23l-6,-47l0.25,-10l0.5,-1.75l1.25,-0.25l1,-1l2.5,2.5l10.875,75.5l-1,7.75l-1.875,0.63" style="fill:#038302;stroke:#038300;stroke-width:1px;stroke-linecap:butt;stroke-miterlimit:2;"/></g><g><path d="M598.75,1565.88l-4.75,-0.63l-3.5,-1.25l-1.5,-1.5l-0.5,-1.5l-2,-4l-0.5,-1.5l0,-0.5l-1,0.5l-0.5,1.5l-3,7l-4.5,8.5l-3.5,3.5l-4.5,2.5l-1.5,0.5l-2,2l-4.5,-0.62l-4.5,-1.38l-2.5,-2.5l-1.125,-6.5l-0.125,-18l0.75,-6l2,-7l2,-5l1,-2l0.5,-1.5l5.5,-5.5l5.25,0.13l0.75,1.87l0.125,2l-10.125,29l0,3l0.5,3.5l2,2l0.25,1.25l2.5,0.5l1.25,3.25l1.5,1.5l3,0l2.5,-2.5l5.375,-10.5l2.625,-6.5l1.5,-1.5l1.375,-0.25l-0.375,-12.75l2,-9l1.125,-3l0.375,-1.5l1.5,-1.5l1,0l1,-1l1,1l3.5,0.63l2,0.75l2.5,0.62l1.5,1.5l-1.5,1.5l-2,0l-1,1l-1,-1l-1.5,-0.5l-2,-1l-1.75,-0.25l-0.5,1.75l-0.25,5l3,10l1.125,3l0.375,1.5l3.5,3.5l1,0l1.5,1.5l-1,1l0.5,0.5l2,0l1.5,-1.5l5.375,-10.5l4,-10l-0.375,-8.5l2,-2l0.25,-1.37l4.75,-0.25l0.625,-11.88l1,-7l1,-4l0.875,-2l0.5,-1.5l1.5,-1.5l1,0l1.5,1.5l-0.5,1.5l-0.875,2l-0.25,4l2.625,20.5l1.5,1.5l1.5,-1.5l1.25,-4.25l1.25,-0.25l1.5,1.5l-0.625,3.5l-1.375,2.5l-2,3l-0.75,2.5l5.125,19l0.625,8.75l-2,0.5l-4.5,0.75l-3.5,-3.5l-5.25,-24.37l-4.5,0l-0.875,2.87l-2.875,7l-4.5,9.5l-5,8l-1,2l-2.5,2.5l-1.25,0.25l-0.5,1.63m-38.75,-15.88l0,-0.5l0.625,-2.5l4.875,-13l0.5,-3.5l1,-1l-0.5,-0.5l-1,0l-3.5,3.5l-0.5,1.5l-1,2l-0.625,2l-0.875,11.5l1,0.5m26,3l0,-1l-1,0l0,1l1,0" style="fill:#038302;stroke:#038300;stroke-width:1px;stroke-linecap:butt;stroke-miterlimit:2;"/></g><g><path d="M665.5,1676l-2,-1l-1.5,-1.5l0,-2l-1,-1l1,-1l-8.5,-146.5l-3.875,-28l0.375,-15.5l1.5,-1.5l1,0l1,-1l1,1l1.25,0.25l4.75,16.75l9.375,171l-0.375,2l-0.5,1.5l1,1l-1,1l0,1l1,1l-1.5,1.5l-2,0l-1,1" style="fill:#038302;stroke:#038300;stroke-width:1px;stroke-linecap:butt;stroke-miterlimit:2;"/></g><g><path d="M338.5,1680l-2,0l-1.5,-1.5l-1.25,-3.5l-29.75,-172.5l-1,-1l1,-1l0,-5l1.5,-1.5l3,0l1.5,1.5l0,1l3,3l0.5,4.5l1,4l5,29l22.5,133.5l1,1l-2,2l1,1l-0.25,3.25l-1.25,0.25l-2,2" style="fill:#038302;stroke:#038300;stroke-width:1px;stroke-linecap:butt;stroke-miterlimit:2;"/></g><g><path d="M856.5,1455l-9,-1l-3.5,-3.5l-3,-16l1.5,-1.5l1,0l1.5,1.5l0.625,7.5l1.375,6.5l2.5,2.5l2,0l1.5,-1.5l-1,-1l0,-1l1,-1l-1,-1l-1.625,-16.5l-1.875,-8l-4,-14l-0.75,-5l0.25,-20.5l4.5,-4.5l4.5,-1.25l6,0l1.5,0.25l1.5,1.5l-0.25,2.25l-1.25,0.25l-2,-2l-4.25,0.13l-0.5,1.62l-2.25,0.25l-0.5,0.5l1,1l0.25,1.5l9.125,33l0.625,31.5l-2,2l-2,4l-1.5,1.5" style="fill:#038302;stroke:#038300;stroke-width:1px;stroke-linecap:butt;stroke-miterlimit:2;"/></g><g><path d="M1009,1370.38l-2.5,0.62l-1.5,-1.5l0,-2l-1,-1l1,-1l0.25,-1.25l1.25,-0.25l1,-1l1,1l2,0l1,1l1,-1l2.25,0.25l0.25,2.25l-1.5,1.5l-2.25,0.25l-0.5,1.5l-1.75,0.63" style="fill:#038302;stroke:#038300;stroke-width:1px;stroke-linecap:butt;stroke-miterlimit:2;"/></g><g><path d="M880.75,1333.75l-3.25,0.25l-1,-1l-1,1l-2,-2l-1.25,-0.25l-1.5,-3.75l-5.75,-40.5l0,-0.5l-1,0.5l-0.5,3.5l-4,16l0.25,9.75l-1.5,0.5l0,1.5l1.5,0.5l-0.25,1.75l-0.75,1.75l-2.75,0.88l-2,0l-2.5,-0.63l-1.5,-1.5l-1,-4l-2,-2l-0.375,-1.5l-3.875,-10l-0.125,-8l1.375,-6.5l0.5,-0.5l1,1l3.25,1.25l0.25,2.25l2,2l3.5,6.5l0.75,1.75l1.5,0l2.75,-11.75l2,-7l2.875,-7l0.625,-2.5l3.5,-3.5l6,1l3.5,3.5l2.5,9.5l4.25,39.75l-1.625,0.5l-0.125,4.25l-2,2l-0.25,1.25" style="fill:#038302;stroke:#038300;stroke-width:1px;stroke-linecap:butt;stroke-miterlimit:2;"/></g><g><path d="M827.75,1331.88l-5.25,0.12l-1.5,-1.5l-2.25,-4.5l-1.25,-5l-1.5,-33.5l3.5,-3.5l2,0l2.5,2.5l3.5,24.5l1,4l0.875,5l-0.125,8l-1.5,3.88" style="fill:#038302;stroke:#038300;stroke-width:1px;stroke-linecap:butt;stroke-miterlimit:2;"/></g><g><path d="M988,1326.38l-4,0l-4.75,-2.63l-4.75,-20.75l-0.625,-5.87l-4.875,0.5l-3,1l-12.5,7.37l-8.5,6.5l-3,2l-4,2l-1.5,0.5l-1,1l-1,-1l-2.5,0.38l-7,-0.13l-1.5,-0.25l-2.5,-2.5l0,-1l-2,-2l0.75,-9.25l-2.75,1.25l-2.5,1.5l-2,2l-2.375,0.25l0.625,9.5l-3.5,1.5l-1.5,5.63l-7.5,0l-0.25,-1.38l-2,-2l5.5,-77.5l1.125,-5l1,-3l2.375,-4.5l1.5,-1.5l3,0l2.5,2.5l-3,72l0.5,0.5l2,-2l2,-1l7.25,-5.25l3.75,-8.75l3,-5l4.75,-6.75l4.75,-2.62l3.75,-0.38l0.625,1.75l0,3l-0.875,2l-3.5,5.5l-5,5l0,18l1,1l-1,1l0,1l-1,1l0.5,0.5l1.5,0.38l3,0.12l3,-1.12l3,-1.88l13.5,-9.5l4.5,-2.5l1.5,-0.5l2,-2l4.5,-1.25l5,-0.12l5.5,1.37l2,2l1,0l1.5,1.5l0,1l1.5,1.5l1.5,-1.5l0.5,-3.5l5,-17l8.125,-22l0.875,-2l2.5,-4.5l1.5,-1.5l2,0l3.5,3.5l-2.5,2.5l-3.25,0.25l-15.75,47.75l0.25,6l1.875,5l0.375,1.5l1,1l-2,2l0.5,0.5l1.25,0.25l-0.375,2.75l-0.375,1.5l-2.5,2.5l-1.5,0.38" style="fill:#038302;stroke:#038300;stroke-width:1px;stroke-linecap:butt;stroke-miterlimit:2;"/></g><g><path d="M841.5,1251l-3,0l-2,-2l-3.5,-0.25l0,-9.25l1.5,-1.5l3.5,0.63l1.75,0.62l0.5,1.5l3.5,0.5l-0.75,8.25l-1.5,1.5" style="fill:#038302;stroke:#038300;stroke-width:1px;stroke-linecap:butt;stroke-miterlimit:2;"/></g><g><path d="M976.5,1188l-1.5,0.38l-3,0l-1.5,-0.38l-1.5,-1.5l-0.5,-1.5l-1,-2l-0.125,-2l0.625,-3.5l1,-1l-1,-1l1,-1l4,-47l1.5,-1.5l4,0l2.5,2.5l0.5,1.5l0.875,2l1,3l0.875,5l0,20l-2.875,17l-0.75,3l-0.625,4.5l-3.5,3.5" style="fill:#038302;stroke:#038300;stroke-width:1px;stroke-linecap:butt;stroke-miterlimit:2;"/></g><g><path d="M938,1185.5l-4.75,-0.75l-0.5,-1.5l-1.25,-0.25l-1.5,-1.5l0,-2l-2,-2l-1.125,-4.5l-0.25,-13l0.875,-6l2,-7l2,-5l3.5,-5.5l1.25,-2.25l4.25,-2.25l3,-3l8,-1l1.5,1.5l-0.25,3.25l-1.25,0.25l-2,-2l-2,0l-2,2l-1,0l-1.5,1.5l-0.75,5.5l-0.5,2l-0.75,4.5l-1,1l1,1l0,26.5l1,-0.5l0.5,-1.5l4,-9l6,-26l3,-10l1.875,-5l0.625,-2.5l3.5,-3.5l2,0l1.5,1.5l0.5,1.5l0,2l-0.75,1.88l-4.5,0.25l-10.75,41.87l-2,5l-4.5,8.5l-4,4l1,1l-0.5,0.5l-1.5,0.5" style="fill:#038302;stroke:#038300;stroke-width:1px;stroke-linecap:butt;stroke-miterlimit:2;"/></g><g><path d="M868,1198.63l-1.5,0.37l-1.5,-1.5l-5.25,-7.25l-1.5,-0.5l-0.25,-2.25l-0.5,-0.5l-1.5,1.5l-2,4l-3.5,3.5l-4,1l-1,1l-1,-1l-2,0l-3.5,-3.5l0,-2l-2,-2l0.625,-14.5l1.875,-11l1,-4l2,-5l3.5,-6.5l7.5,-7.5l5,0l1,-1l1,1l1,-1l1.5,0.38l3,1.25l2.5,-0.63l2.5,-1.37l3.75,-0.38l0.5,1.5l1.5,0.5l0.5,1.75l0.75,5.5l-1.5,1.5l-1.25,0.25l-1.625,4.75l-2.25,15l0,4l1.25,9l-0.25,4l0.625,2.5l1.25,2.25l2.5,0.5l0,2.5l-4.75,2.63l-4,1.25m-15.5,-10.63l1.5,-1.5l2.375,-4.5l5.125,-23l3.875,-10l0.375,-2.75l-1.25,-0.25l-2,-2l-5,1l-2.5,2.5l-1.375,6.5l-1.625,33.5l0.5,0.5" style="fill:#038302;stroke:#038300;stroke-width:1px;stroke-linecap:butt;stroke-miterlimit:2;"/></g><g><path d="M1028.5,1196l-4,-1l-4.5,-4.5l-0.5,-1.5l-0.875,-2l-0.875,-4l-0.75,-15.5l-0.5,-0.5l-1.5,1.5l-0.5,1.5l-3.5,5.5l-5.5,7.5l-0.75,1.75l-1.75,0.5l-5.5,0.75l-2.5,-2.5l-0.375,-17.5l1.875,-11l3,-11l2.5,-6.5l3.5,-3.5l1.5,-0.25l6,0l4.75,2.5l0.25,1.25l2.5,2.5l0.5,-0.5l7.75,-48.5l0.5,-1.75l3.75,-1.62l3,-0.13l2.75,0.75l0.75,2.75l0.125,3l-8,57l1.375,36.5l0.5,0.5l1,-1l1,0l1,-1l1,1l1.25,0.25l0.25,1.25l-2.5,2.5l-1.5,0.5l-2,1l-1.5,0.5l-3,3m-22,-20l1.5,-1.5l0.5,-1.5l3.5,-5.5l3.5,-6.5l2.75,-7l1.375,-7l0.375,-3.5l-7.5,-7.5l-3.375,0.25l-2.625,16.75l-0.5,22.5l0.5,0.5m11.5,-10l0,-1l-1,0l0,1l1,0" style="fill:#038302;stroke:#038300;stroke-width:1px;stroke-linecap:butt;stroke-miterlimit:2;"/></g><g><path d="M989.5,1097l-3,0l-1.5,-1.5l-0.25,-1.25l-1.25,-0.25l-2.5,-2.5l0,-1l1,-1l-1,-1l1,-1l1,-3l1.5,-1.5l5,0l1.5,1.5l2.5,4.5l-0.5,2.5l-1.5,2.5l-0.5,1.5l-1.5,1.5" style="fill:#038302;stroke:#038300;stroke-width:1px;stroke-linecap:butt;stroke-miterlimit:2;"/></g><g><path d="M908.5,1190l-4,0l-3.5,-3.5l0,-3l-2,-2l0,-1l-4.5,-4.5l-1,0l-2.5,-2.5l0,-1l-5,-5l-1.375,-6.5l0.375,-12.5l2.5,-2.5l1,0l1.5,1.5l0.5,1.5l8.5,18.5l1.5,2.5l0.5,1.5l3.5,3.5l1.375,-0.25l4.625,-39.75l3,-14l1,-3l0.5,-2.5l3.5,-3.5l2.25,0.25l0.25,2.25l-3,3l-9,62l2,2l0,1l-1,1l2,2l-1,1l0,1l-2.5,2.5" style="fill:#038302;stroke:#038300;stroke-width:1px;stroke-linecap:butt;stroke-miterlimit:2;"/></g><g><path d="M284,1755.38l-6.5,-0.38l-14.5,-14.5l-1,-2l-2,-3l-1.375,-2.5l-1,-4l0.125,-9l0.875,-3l0.875,-2l0.5,-1.5l5.5,-5.5l3,-1l2,-2l4.375,-0.12l-0.5,-5.88l0.25,-3l0.625,-1.75l1.25,-0.25l1,-1l2,2l0.5,-0.5l-1,-7l-16.5,-16.5l-1,0l-7.5,-7.5l-7.375,-14.5l-4.125,-13l-6,-65l-1.75,-5.75l-1.25,-0.25l-2.5,-2.5l0,-3l4,-4l2,-42.5l-1,0.5l-0.625,2.5l-0.875,2l-0.5,1.5l-1.5,1.5l-3.25,0.25l-0.875,2.75l-2.375,4.5l-3,3l1,1l-0.5,0.5l-10.5,0.25l-1.5,-0.25l-3.5,-3.5l-1.25,-5.5l0,-12l1.25,-5.5l2,-2l0,-1l2.5,-2.5l6,1l1,1l0.5,-0.5l0,-3l1,-1l-0.5,-0.5l-1.25,-0.25l-0.25,-2.25l-1,-1l2.5,-2.5l1.25,-0.25l0.25,-1.25l2.5,-2.5l3.5,0.63l2,0.75l2.75,0.37l0.25,-1.25l-1,-1l0.5,-0.5l3.375,-1.25l-3,-22.5l-1.375,-0.25l-2.5,-2.5l1,-1l0,-2l3,-3l0,-2l-1,-1l0.5,-0.5l6,0l2,2l2,0l2,2l1,0l1,1l1,-1l2.5,2.5l0.625,2.5l0.875,2l0.5,1.5l1.5,1.5l3,0l2,2l3.5,0.63l5,1.87l3,0.88l97.5,3.62l1,-1l1,1l50.5,-2.75l27,-3.87l7,-1.75l43,-5.38l3,-0.75l3.5,-0.5l1,1l1,-1l1,1l93.5,-6.5l11,-2l23,-5l10,-3l7,0l4,-1l5.5,-0.5l2,-2l2.5,0.38l7,0l4.5,-1.38l1,1l1,-1l1,0l1,1l1,-1l1,0l1,1l1,-1l2,0l2,-2l3.5,-0.25l-0.5,-11.75l-1.125,-8l-1,-4l-0.75,-2l-0.625,-2.5l-2.5,-2.5l-1,0l-1.5,-1.5l-0.25,-1.37l-7.75,0.62l-2,-0.25l-2,0l-1.5,0.5l-1,-1l-1,1l-1.5,-0.37l-4,-0.25l-6.5,0.62l-1,1l-1,-1l-32.5,0.88l-4,-0.63l-32,1.13l-23,3.37l-3,0.88l-2,0.87l-2,0l-2,-0.37l-68,5.5l-12,-2.38l-39.5,0.75l-1,1l-1,-1l-10.5,0.75l-3,-0.25l-2.5,-0.5l-1,1l-1,-1l-15,-1l-1,1l-1,-1l-5.5,0.75l-2,0l-8,-1.5l-3,0.25l-3,1.13l-2,0.25l-43.5,-0.88l-1,-1l-1,1l-10,-1l-1,-1l-1,1l-7,0l-1,1l-1,-1l-37.5,0.38l-9.5,1.62l-1,1l-1,-1l-3,-1l-1,1l-1,-1l-1,1l-4,0l-1,-1l-1,1l-4,-4l-4,1l-2.5,-2.5l0,-3l2.5,-2.5l6,1l0.5,-0.5l-1,-1l-2.375,-4.5l-1.125,-3l-1.75,-11l2.25,-77.5l-2,-2l1,-1l-1,-1l3.5,-3.5l6.5,0.75l3.5,1.25l1.5,-1.5l0.5,-1.5l8,-21l7,-27l1.75,-4.75l1.75,-0.75l2,-1l2,-0.12l3.5,0.62l1,-1l1,1l5,0l2,-2l1,0l2.5,-2.5l0.5,-1.5l23,-49l1.5,-2.5l2.5,-3.5l1.5,-2.5l4.5,-4.5l1.5,-0.5l2,-0.87l9,-0.13l5,2l6,2.88l3,1l6,0.12l3.5,-0.5l3,-3l1,0l3.5,-3.5l0,-1l1.5,-1.5l1,0l10.5,-10.5l1,-2l7.5,-11.5l3.5,-4.5l2,-3l3.5,-3.5l4.5,-2.12l11,0l2,0.62l16,10l2,0.88l3,1l7,0l4,-0.88l5,-2l5.5,-3.5l31,-28l2.5,-1.37l3,-0.88l8.5,-0.75l1,-1l1,1l5.5,1.63l32,12.75l3,0.87l8,0.25l10,-1.25l3,-0.87l4,-1.88l1.5,-0.5l2,-2l2.5,-0.62l4,-1.88l12.5,-7.5l2.5,-1.12l11,-0.38l12,2.13l10,3.87l6.5,3.5l6,4l10.25,8.25l0.25,1.25l3.5,3.5l1.5,0.5l2,1l1.5,0.5l2,2l8.5,-0.75l2,-0.75l3,-2l4,-3l3,-2l5,-2l4,0l4.75,1.75l0.25,1.25l0.5,0.5l1,-1l5.5,5.5l1,2l5.5,8.5l0.5,1.5l3.5,3.5l1.25,0.25l3.25,5.25l0.5,0.5l1,-1l2.5,2.5l0,1l1.5,1.5l3.25,0.25l0.5,1.5l1.25,0.25l1.5,1.5l0.5,1.5l15.875,31l3.125,8l7.75,18l2.25,8l4.875,12l0.625,3.5l-2,2l1,1l0.375,11.5l-5.875,31l-2.5,26.5l2,2l4.75,36.5l-0.375,3l-0.375,1.5l3,3l10.875,161.5l1.125,2.5l0.5,2.5l-0.5,1.5l1,1l-1,1l1,1l-3,25.25l-1.75,0.5l-11.75,52.75l-3.125,11l-0.125,1.75l1.25,0.25l1.5,1.5l-0.5,2.5l-0.125,3l1.375,5l0.75,2l2.5,4.5l2.5,2.5l1,0l5.5,5.5l0.5,1.5l2,5l0,4l-2,5l-1.5,2.5l-3,4l-2,3l-2.5,2.5l-1.5,0.5l-8,5l-4,2l-1.5,0.5l-3,3l-10.5,-0.5l-3.5,0.5l-1,-1l-1,1l-3.5,-0.5l-7,-1.75l-11.5,0.25l-1,1l-1,-1l-8.5,0.63l-6.5,1.37l-1,-1l-1,1l-2.25,0.25l-0.5,1.63l-5.25,0.12l-1.5,1.5l-14,22l-3,4l-2,3l-1.5,1.5l-8,6l-2,2l-2.5,0.63l-12,4.87l-4,0.88l-10,0l-4,-1l-2,-0.75l-2.5,-0.63l-2,-2l-9.5,-5.5l-10,-3.87l-8,-2l-37,-2l-11,1.87l-16,4.13l-16,6.87l-5,3l-1.5,0.5l-2,2l-2.5,0.63l-2,0.75l-8,2.12l-5,0.88l-10,-0.13l-13,-3.75l-5,-2l-12,-5.87l-39,-7.88l-25,0.13l-3,0.75l-2,0.75l-2.5,0.62l-2,2l-4,2l-5.5,5.5l0,1l-3.5,3.5l-3,0l-1,1l-1,-1l-2.5,-0.62l-4,-2.88l-18,-15l-5,-3.12l-3,1.12l-4,1l-12.5,0.5l-1.5,-1.5l0,-1.5l-1,0.5l-1,7l-2,2l-1.625,13.5l-1,3l-1.75,4l-0.625,2.5l-3.5,3.5l-1.5,0.38m445,-292.13l10,-2.75l3.75,-0.75l2.75,-4.75l0.875,-2l0.625,-2.5l2.5,-2.5l3,0l4.5,-4.5l0,-1l-3,-3l3,-3l0.25,-1.25l1.5,-0.5l0.5,-2.5l5.625,0.5l-6.5,-56.75l-2.875,-9l-3.5,-37.5l-3,-3l0.5,-10.5l5.5,-43.5l1,-1l-1,-1l1,-1l0,-10l-1,-1l1,-1l-1.125,-7.25l-1.375,-0.25l-1.5,-1.5l-0.5,-2.5l-23,-55l-2.125,-5l-3.75,-6l-4.125,-10l-0.5,-2.5l-1.5,-1.5l-4,-2l-6.5,-6.5l-0.25,-1.25l-3.25,-1.25l-4.5,-4.5l-1,-2l-4,-6l-1.25,-2.5l-0.75,-5.5l-1.5,-1.5l-1,0l-2,-2l-1,1l-2.5,1.5l-4,3l-3,2l-2,0.88l-7,2l-6.5,0.62l-1,1l-2,-2l-2.5,-0.5l-6,-2l-3.5,-0.5l-2.5,-2.5l0,-1l-12.5,-12.5l-6.5,-4.5l-4,-2l-6,-3.75l-8,-1.25l-9,0.25l-25,13.75l-7,3l-1.5,0.5l-1,1l-1,-1l-23,1l-2,-2l-3,0l-2,-2l-4.5,-0.62l-13,-4.88l-2.5,-0.5l-3,-3l-3,-1l-2,-2l-8.5,0.75l-2.5,1.25l-30.5,27.5l-8,4.88l-3,1.12l-3,0.75l-7.5,0.75l-1,1l-1,-1l-8.5,0.5l-4,-1l-3,-1.12l-6,-3.75l-3,-1.25l-1.5,-0.38l-1.5,-1.5l0,-2l-3.5,-3.5l-1,1l-2,0l-2,2l-1,0l-2.5,2.5l-2,3l-3.5,4.5l-7.5,11.5l-1,2l-10.5,10.5l-1,0l-1.5,1.5l0,1l-4.5,4.5l-4.5,2.5l-2,0.88l-4,1.25l-4,1.87l-2,0.25l-6,-1.25l-4.5,-0.5l-2,-2l-2,-1l-3,-2l-2.5,-0.62l-2.5,0.62l-1,-1l-4.5,4.5l-3.5,5.5l-24,51l-0.5,1.5l-3.5,3.5l-1.5,0.5l-2,1l-1.5,0.5l-3,3l-3.5,-0.62l-1.5,-0.38l-2,2l-4,0l-1.5,1.5l-0.5,3.5l-14,45l-0.5,2.5l-2.5,2.5l-3.25,1.25l-0.5,1.63l-6.75,0.25l-1.375,78.87l2,8l0.875,2l0.5,1.5l2.5,2.5l1,0l4.5,-4.5l1.25,-5.5l0.75,-10.5l1.5,-1.5l1.5,1.5l-1,16l-2,2l0,1l-3.5,3.5l-1.25,0.25l-1.25,4.25l-1,1l0.5,0.5l16.5,-0.5l6,-1.12l27,-1.13l7.5,0.75l1,1l1,-1l36,1l1,1l1,-1l1,1l59.5,-0.87l3,0.5l2,0.62l71,1.25l59,-4.12l5,0.5l43,-6.63l3,-0.87l63,0.37l23,-1.62l3,0.37l6,0l1.5,0.5l1.5,1.5l0,2l-1,1l2,2l0.625,2.5l0.75,2l1.125,4l2.25,17l-0.375,4l0.375,3.75l-1.25,0.25l-1.5,1.5l0,2l-1.5,1.5l-4.5,-0.75l-1.75,0l-0.5,1.5l-3.25,1.25l-2,-2l-7,-1l-1,1l-1,-1l-1,1l-2.5,0.63l-2,0.87l-1.5,0.5l-1.5,1.5l0,1l-1.5,1.5l-5.5,-0.75l-2,-0.5l-12,-0.37l-7,2l-6,0.12l-2,0.88l-2.5,0.62l-1,-1l-1,1l-35.5,6.75l-7,1.75l-6,0.13l-1.5,0.37l-1,-1l-1,1l-5,0l-1,-1l-1,1l-3.5,0.5l-41,0.13l-5,1.75l-3,0l-2,-0.25l-18,1.75l-3,0.62l-22,1.13l-25,5l-2,0.75l-3.5,0.62l-1,-1l-1,1l-3,0l-1,-1l-1,1l-12.5,2.5l-3,0.13l-4.5,-0.63l-1,1l-1,-1l-14.5,0.5l-5,1.13l-13,-0.13l-9,1.25l-3,0.88l-2,-0.13l-2,-0.62l-26,-0.38l-2.5,0.5l-1,-1l-1,1l-7,-1l-1,1l-1,-1l-3,0l-1,-1l-1,1l-23,0l-2,2l-3.5,-0.62l-1.75,-0.63l-0.5,-1.75l-17.75,0.63l-14,-3.13l-5.5,-0.5l-2,-2l-1.25,-0.25l-1.875,-4.75l-0.375,-1.5l-2.5,-2.5l-0.5,0.5l1.5,8.5l1.5,13.5l2,2l0,1l1.5,1.5l1,0l1,1l2,-2l1,1l28,-1l1,1l1,-1l62,-1l2,-2l1,1l1,-1l1,1l9.5,1.38l11,-0.25l2,-0.5l3,-1.13l2.75,-0.25l0.5,1.75l25.5,-2.12l0.25,-1.38l1.5,-1.5l3.5,0.63l1.5,0.37l1,-1l1.5,1.5l0.25,1.25l1.75,0.13l73.75,-6.13l0.5,-2.5l2.75,-0.87l2,0.12l1.75,0.75l1.5,3.63l7.25,0.12l1,-1l1,1l3,0l1,-1l1,1l19.25,-1l1.25,-3.5l1.5,-1.5l4,1l2.5,2.5l0.25,1.25l3.25,0.25l1,1l1,-1l20,0l1.5,-1.5l0,-1l2.5,-2.5l4,1l1.5,1.5l0.25,1.38l7.75,-0.5l5.5,-1.38l1,-1l1,1l7,0l1,1l1,-1l19.5,-0.75l29,-5.75l20,-3.62l33,-0.38l12,-2l21,-1.25m-425.5,234.75l0.5,-0.5l-29.5,-135.5l-8,-43l-4.75,-18l-0.75,-4.5l2.5,-2.5l2,0l0.5,-1l-11,0.75l-3,0.88l-2,0.75l-3.75,0.87l-0.25,1.25l2,2l19.5,96.5l2.5,14.5l2,2l0.5,5.5l14.125,67l1.375,4.5l1.5,1.5l3.5,0.5l5.5,2l5,4.5m61.5,9.25l1.5,-0.25l0.5,-0.5l-1,-1l-31,-213l1,-1l-0.5,-0.5l-11.5,1.75l-3,0.88l-2,0.75l-2.5,0.62l-2,-2l-46,0l-0.5,0.5l6,6l1.375,4.5l38,190l0.625,4.5l2,2l-1,1l-0.5,1.5l-1,2l-0.5,1.5l4.5,4.5l17.5,-2.25l23.5,-0.75l1,-1l1,1l4.5,-0.75m38,-5.75l58,-13l4.5,-0.5l1.5,-1.5l-1,-1l-0.5,-5.5l-9.125,-43l-0.75,-2l-0.625,-3.5l1.5,-1.5l1.5,-0.37l2.75,-0.38l1.75,6.75l2,13l3,12l3.5,25.5l0.5,0.5l1,-1l36.375,-3.12l-0.25,-4.88l-6.375,-47l0.25,-2l0.5,-1.5l1.5,-1.5l3.25,0.25l0.25,1.25l1,1l-1,1l0.25,1.5l0.125,9l5.125,32l1,4l0.5,4.5l1.5,1.5l43,1l0.5,-0.5l-1,-1l-0.75,-7.5l-0.875,-3l0.375,-4l-1.25,-5l-10.5,-60.5l-1,-1l1,-1l-1,-1l0,-7l-1,-1l1,-1l0,-5l1.5,-1.5l1,0l1,-1l1.5,1.5l0.75,5.5l3.75,14l6.875,38l4,26l0.625,14.5l-1,1l0.5,0.5l13.5,-1.5l11.5,-0.5l0.5,-0.5l-1,-1l0,-1l-1,-1l1,-1l-1,-1l-0.5,-6.5l-5,-25l-1.75,-11l-0.75,-20.5l1.5,-1.5l1,0l1,-1l2.5,2.5l2.625,15.5l2.875,11l0.75,4l3.75,30.5l1,1l-0.5,0.5l-1,0l-0.5,0.5l2,2l0,1l-2,2l0.5,0.5l20,0l1,1l1,-1l2.5,0.5l2.875,0.25l-0.375,-7.75l-6.875,-42l-0.625,-14.5l-1,-1l0.5,-0.5l1,0l2,-2l2,0l1,-1l1.5,1.5l0,4l-1,1l1,1l3.5,20.5l3.5,28.5l2,2l0,8l-1,1l0.5,0.5l10,0l1,1l1,-1l48.5,1.25l1.75,-0.5l0.125,-1.75l-13.875,-184.75l1.5,-0.25l2,-2l5.375,1.25l6.625,60.75l4.5,120.5l1,1l-1,1l0.25,1.25l3.75,-0.25l4,-0.75l16.75,0l0,-1.75l-1.25,-6l-19.375,-195l-1.125,-3.5l1,-1l-1.5,-1.5l-1,1l-1,0l-3,3l-1,-1l-1.25,-0.25l-0.5,-1.5l-15.75,0.13l-2,-0.75l-3,-0.38l-30,4.5l-5,1.63l-15,3.12l-11.5,1.5l-0.5,1l1.5,0l2.5,2.5l-1.125,6.25l-3.875,-0.25l-3.75,-0.75l-2.625,-4.75l-0.875,-2.87l-5.75,0.62l-2,0.75l-2,0l-2,-0.75l-6.5,-0.75l-1,1l-1,-1l-1.5,0.38l-3,1.12l-2.5,0.5l-1,-1l-1,1l-2.25,0.25l0.125,2.75l1,5l2.375,20l0.625,2l0.25,3l-0.75,4.75l-1.375,0.25l-2,2l-1,-1l-2,0l-2.5,-2.5l-2.75,-10.5l0.5,-4l-2.875,-21l-26.625,0l0.25,2l0.875,2l0.625,2.5l1,1l-1,1l-1,4l-1.5,1.5l-1,0l-1,-1l-1,1l-1,0l-1.5,-1.5l-1.375,-4.5l-0.625,-6.5l-1.5,-1.5l-1.5,0.5l-2,0.38l-22,-0.38l-3,1l-2.5,0.5l-0.5,0.5l2,2l1.25,4.5l0,10l-0.25,1.5l-1.5,1.5l-2,0l-2.5,-2.5l-0.25,-1.25l-1.25,-0.25l-2.5,-2.5l-0.5,-1.5l-0.875,-2l-0.625,-2.5l-1,-1l1,-1l-1.125,-7.5l-36.625,3.25l0,1.75l8.25,40l1.125,3l0.125,2l-0.75,4.5l-1.5,1.5l-5,0l-3.5,-3.5l0,-2l-1.5,-1.5l-0.5,0.5l0,4l-1,1l1,1l0.625,14.5l2.875,18l2,8l1.125,3l1.375,2.5l5.25,7.25l1.75,-0.12l2.5,-0.63l2,-2l1.25,0.25l0,3.5l-2.25,1.25l-6.25,4.25l-0.5,2.63l-5.25,0.12l-3,-3l-1,0l-2.5,-2.5l-0.375,-1.5l-1.125,-3l-2,-7l-2,-11l-0.75,-29l0.875,-5l0.875,-3l4.125,-11l0.125,-2l-1.25,-5l-3,-17l-0.5,-8.5l1,-1l-1,-1l0.5,-1.5l0.25,-1.87l-15.25,1.87l-2,-2l-16,1l-0.5,0.5l1,1l2.5,15.5l1,4l17,103l7.5,77.5l-1.5,1.5l-4.25,-0.12l-1.625,-4.88l-27.125,-170l-1.5,-27.75l-2,0l-22.875,3l25.375,186.75l-0.75,3.75l-1.25,0.25l-1,1l-1,-1l-2.25,-0.25l-1.5,-4.75l-28.75,-184.5l1,-1l-0.5,-0.5l-9.5,0.75l-3,-0.25l-4,-1l-2.875,-0.25l0.375,6.75l30.5,206.5l1.5,1.5l20.5,-3.5l6,-1m329,-36.5l0,-6.5l1,-1l-0.5,-0.5l-1.375,-0.25l-0.125,-4.25l1,-1l-1,-1l0.5,-0.5l1.5,-0.5l2.5,-1.5l2.5,-0.5l2,1l1.75,0.75l-0.375,2.75l1.625,3.5l2.25,3.25l1.5,0l5.75,-31.75l-0.25,-140l-0.5,-3.87l-4.25,-0.13l-1,-1l-1,1l-1,0l-4.5,-4.5l-0.375,-1.5l-0.625,-3.5l-1,-1l1,-1l-1,-1l1,-4l-0.5,-0.5l-1,1l-2.5,-0.5l-3,0.13l-2,0.87l-1.5,0.5l-1,-1l-1,1l-12,0l-1.5,1.5l-0.125,1.5l18.125,193.5l1,0.5m-26.5,-195l0.5,-1l-1.5,0l-0.5,1l1.5,0m50.5,-20l0,-1l-1,0l0,1l1,0m9.5,14l0.5,-0.5l-0.125,-4.25l-3.375,-0.25l-0.5,0.5l1,1.5l2.5,3m-14,5l0.5,-0.5l-1,-1l0,-4l-1.5,-1.5l-4.25,1.25l0,2.5l4.75,2.75l1.5,0.5m6.5,151l0,-0.5l12.5,-57.5l0,-5l0.625,-2l0.875,-13.5l-1,-1l1,-1l-1,-1l0,-2l-1,-1l1,-1l-1,-1l-0.625,-2.5l-0.25,-2l-0.125,-24.5l1,-1l-1,-1l-0.625,-11.5l-0.875,-6l-0.5,-8.5l-0.5,-0.5l-3.5,3.5l-0.25,1.25l-6.75,2.5l1,136.25l1,0.5m-526,-117l0,-1l-1,0l0,1l1,0m1,5l0,-4.5l-1,-0.5l0,4.5l1,0.5m-10.5,18l2.5,-2.5l0,-1l1,-1l-1.5,-1.5l-1,0l-2.5,-2.5l-0.5,-2.5l-1.125,-3l0,-2l0.625,-3.5l-1.5,-1.5l-3,0l-1,-1l-1.5,1.5l1,1l-0.375,1.5l0,4l0.875,2l3.5,5.5l2,2l0,2l2.5,2.5m54,154l0.5,-0.5l-22.5,-85.5l-13,-61l-0.5,-4.5l-1,-0.5l-1.5,37l1.75,7l4.5,56l1.875,10l1.875,6l7,15l4.75,6.75l3.25,1.75l13,12.5m383,43l2.5,-2.5l15,-23l1,-2l2,-2l-1.5,-1.5l-1,0l-1,-1l-1,1l-7.5,0.63l-20,-2.13l-17,-0.12l-8,1.12l-42,-1.37l-16,2.12l-28,1.13l-5,-0.75l-12.5,-0.63l-2.5,2.5l-0.25,1.25l-2.75,-0.37l-1.5,-0.38l-2,-2l-30.5,0.13l-3,0.37l-2.75,0.75l0.375,3.75l-0.625,2.5l-2.5,2.5l-4,-1l-1.5,-1.5l0.25,-1.25l1.25,-0.25l0.5,-0.5l-1,-1l-0.25,-1.25l-2.75,0.13l-22,4.25l-2,0.75l-74,14.87l-40.5,1.75l-0.5,0.5l4.5,4.5l3.5,2.5l6,5l3.5,2.5l5,5l4,0l3.5,-3.5l0,-1l4.5,-4.5l4,-2l3,-3l2.5,-0.62l4,-1.63l6,-1l19,-0.12l36,6.87l8,2.13l14,6.75l13,4l5.5,0.62l1,1l1,-1l5.5,-0.5l9,-2.12l5,-2l10,-5.75l14,-6l15,-4.13l10,-1.75l43,1.75l8,2.13l8,3l10,5.87l1.5,0.5l2,2l4.5,1.13l13,0.12l4,-0.75l9,-3.87l2.5,-0.63l2.5,-2l6.5,-5m94.5,-42.25l8,-2.37l2,-0.88l1.5,-0.5l2.5,-2.5l4.5,-6.5l1,-2l0.75,-2l0,-6l-1.25,-3.5l-5.5,-5.5l-1,0l-2.5,-2.5l-2.5,-4.5l-0.875,-2l-1,-3l-0.625,-4.5l-1,-0.5l0,0.5l-7.5,28.5l-0.25,13l-2.25,4.5l1.5,1.5l4.5,0.75m-14,-22.75l0,-1l-1,0l0,1l1,0m1,1l0,-1l-1,0l0,1l1,0m1,1l0,-1l-1,0l0,1l1,0m2.5,5l0.5,-0.5l-2,-4l-1,-0.5l0,2.5l2.5,2.5m-458,80l2.5,-2.5l1,-12.25l-2.5,-0.25l-5.5,-5.5l-4.5,-8.5l-0.75,-2l-0.75,-4.5l-1.5,-1.5l-2,0l-2,2l-3,1l-5.5,5.5l-1,7l2.5,2.5l3,2l14,11l2,1l4,5m-5.5,-49l0,-1l-1,0l0,1l1,0m30.5,15l0.5,-0.5l-6.5,-6.5l-9.5,-7.37l-3,-1.25l-1.5,-0.38l-0.5,0.5l2,2l-0.5,1.5l1.5,3.5l2.5,3.5l0.75,1.75l8.75,2l2,0.63l3.5,0.62m-29.75,-11.25l0.25,-1.25l-1.5,-1.5l-1.5,1.5l0.25,1.25l2.5,0m23.25,-0.75l0,-1l-1,0l0,1l1,0m-26,2l0,-1l-1,0l0,1l1,0m4,0l0,-1l-1,0l0,1l1,0m2.5,11l0.5,-0.5l0,-2l-2,-2l0,-5l-0.5,-0.5l-1,1l-1,0l-2.5,2.5l1,1l0.75,1.25l4.75,4.25m9,5l0.5,-0.5l-1,-1l0,-3l-1,-1l1,-1l-1,-4l-1.5,-1.5l-0.5,0.5l2.25,11.25l1.25,0.25m-7.5,-4l0,-1l-1,0l0,1l1,0m7,7l0,-1.5l-1,-0.5l0,1l1,1" style="fill:#038302;stroke:#038300;stroke-width:1px;stroke-linecap:butt;stroke-miterlimit:2;"/></g><g><path d="M1111,1441.25l-5.5,0.75l-2,-2l-1,0l-1.5,-1.5l-3.375,-6.5l-2,-5l-0.625,-2.5l0,-0.5l-1,0.5l-0.5,1.5l-5,9l-3.5,5.5l-2.5,2.5l-4,1l-1,-1l-1,1l-2,0l-3.5,-3.5l-0.25,-1.5l-2.25,-9l-3,-8l-1.5,-5.5l-2,-2l-0.625,-3.5l-3.625,-5.75l-3.25,-1.25l-3,-3l-10.5,0.63l-7.5,1.37l-1.5,1.5l0,2l8,8l3.375,5.5l1,3l0,7l-0.375,2.5l-2,2l-0.25,1.25l-1.25,0.25l-1.5,1.5l0,1l-3.5,3.5l-1,-1l-1,1l-5,1l-1,1l-1,-1l-3,0l-3.5,-3.5l-1.25,-4.5l-0.75,-7.5l-0.5,-0.5l-1.5,1.5l-0.5,1.5l-2,4l-3.5,5.5l1,1l-2.5,2.5l-7,0l-3.5,-3.5l1,-1l-2.5,-17.5l-1.875,-7l-0.625,-5.5l-3.5,-3.5l-8.5,0.75l-3,0.88l-5.875,2.62l-1.875,22.75l-1.25,5.5l-3.5,3.5l-2,0l-1.5,-1.5l-0.5,-2.5l-1.125,-3l-0.25,-2l0.875,-36l-1,0.5l-0.5,8.5l-2,11l-1.125,4l-3.875,9l-3.5,5.5l-1,2l-7.5,7.5l-1,0l-2,2l-2.5,0.63l-2,0.87l-2,0l-2,-1l-1.5,-0.5l-1.5,-1.5l-1,-3l-2,-2l-1,-10l-0.5,-0.5l-6.5,6.5l0,1l-9.5,9.5l-2.5,0.63l-5,1.75l-7,-0.13l-3.5,-1.25l-1.5,-1.5l-0.5,-1.5l-0.875,-2l-1.125,-4l-0.875,-6l0.375,-17.5l-0.5,-0.5l-1,1l-1.5,0.5l-7,2.88l-3,0l-1.75,-0.63l-0.25,-3.25l1.5,-1.5l1,1l1,-1l1.5,0.5l2,0.13l3,-1.25l4.5,-2.38l1.5,-1.5l0.5,-2.5l4,-10l4.75,-8.75l4.75,-2.62l4,-0.13l2.5,0.5l1.5,1.5l0,5l-2,2l-3,5l-8.5,8.5l-1.5,0.25l0.625,13.75l0.875,6l1.125,4l4.75,7l0.625,2.5l1.5,1.5l3.5,-0.62l1.5,-0.38l7.5,-7.5l7.5,-9.5l1.75,-3l3.25,-13l1.125,-3l1.375,-2.5l2,-3l1.25,-2.25l1.75,-0.5l5.5,-0.75l1.5,1.5l-0.375,1.5l-1.875,4.75l-2.5,0l-0.25,-2.25l1,-1l-0.5,-0.5l-1.25,0.25l-0.25,1.25l-2,2l-0.625,15.5l2.25,10l1.875,4l1.5,2.5l0.5,2.5l-0.25,1.75l2.25,0.25l6.5,-6.5l6.375,-12.5l1.125,-3l1,-4l3.5,-42.5l-1,-1l1,-1l-1,-1l0,-6l1.5,-1.5l1.25,-0.25l0.5,-1.62l5.25,-0.13l2.5,2.5l0.5,3.5l2,8l2,28l-0.25,3.75l1.75,-0.25l5,-2l3,-0.75l17.5,0.25l2,2l2.25,0.25l2.5,4.75l2.75,21.5l0.5,0.5l1.5,-1.5l1,-3l2,-2l1,-4l2,-2l0.5,-5.5l1.125,-4l0.875,-2l0.5,-1.5l3.5,-3.5l3,-1l1,1l1,-1l1.5,-0.37l3,-1.13l13,-2.25l3,0l14.5,2.75l3,3l3,1l4.5,4.5l3.5,5.5l0.875,2l1,3l2.625,12.5l1.5,1.5l1.25,-0.25l4.625,-8.75l1,-3l0.625,-4.5l3,-3l0.25,-1.25l4.25,-1.25l1,-1l2,2l1,-1l4.5,4.5l0.5,1.5l3,7l0.5,3.5l2,2l0,3l1,1l-1,1l0,2l1,1l-1,1l0,1l-1.5,1.5l-1.5,0.25m-217.5,-39.25l5.5,-5.5l3.5,-5.5l0.5,-1.5l1,-1l-0.5,-0.5l-4.5,0.75l-1.75,0.5l-2.75,4.75l-0.75,2l-0.75,5.5l0.5,0.5m147.5,28.5l-0.75,-8.5l-2.25,-4.5l-10.5,-10.5l-0.5,0.5l0.875,13.5l0.5,2l1.25,3l3.875,6l0.25,1.75l-1.5,0.5l-0.25,1.25l1.5,1.5l2.5,-1.5l2.75,-2.25l2.25,-2.75m44,4.5l0,-1l-1,0l0,1l1,0" style="fill:#038302;stroke:#038300;stroke-width:1px;stroke-linecap:butt;stroke-miterlimit:2;"/></g><g><path d="M1040.5,1294l-4.375,-0.12l0,-4.63l14.875,-5.75l17.5,-4.5l3,-3l1,1l1.25,0.25l0.25,1.25l-3.5,3.5l-2.5,0.5l-18,5l-6.5,2.5l-1.5,1.5l0,1l-1.5,1.5" style="fill:#038302;stroke:#038300;stroke-width:1px;stroke-linecap:butt;stroke-miterlimit:2;"/></g><g><path d="M1068,1195.25l-10.75,-0.5l-3.25,-5.25l-3,-3l0,-2l0.5,-0.5l1,1l2,0l2.5,2.5l2.25,4.25l2.75,0.75l4,-0.12l1.5,-0.38l2.5,-2.5l0.25,-1.5l1.375,-5l0.375,-2.5l1,-1l-1,-1l-1.75,-10.5l-0.875,-3l-2.875,-7l-1,-2l-0.5,-1.5l-2,-2l-0.5,-2.5l-2,-6l-2.5,-15.5l2,-2l0.25,-3.37l4.25,-0.13l2,2l2,0l1.5,1.5l0.5,1.5l1,2l0.75,2l4.375,17l7.875,20l0.875,3l0,6l-1,3l-0.875,2l-3.5,5.5l-1.25,2.25l-10.75,4.5" style="fill:#038302;stroke:#038300;stroke-width:1px;stroke-linecap:butt;stroke-miterlimit:2;"/></g></svg>